<mxfile host="app.diagrams.net" agent="Mozilla/5.0 (Windows NT 10.0; Win64; x64) AppleWebKit/537.36 (KHTML, like Gecko) Chrome/135.0.0.0 Safari/537.36 Edg/135.0.0.0" version="26.2.13">
  <diagram name="第 1 页" id="nWk-RR7lZjgcO64jIIm-">
    <mxGraphModel dx="5703" dy="663" grid="1" gridSize="10" guides="1" tooltips="1" connect="1" arrows="1" fold="1" page="1" pageScale="1" pageWidth="4724" pageHeight="4724" math="0" shadow="0">
      <root>
        <mxCell id="0" />
        <mxCell id="1" parent="0" />
        <mxCell id="tCX9zsfhDaWCQf5bKKX1-1" value="Type" style="shape=hexagon;perimeter=hexagonPerimeter2;whiteSpace=wrap;html=1;fixedSize=1;fillColor=#f5f5f5;strokeColor=#d3d3d3;fontColor=#333333;" parent="1" vertex="1">
          <mxGeometry x="-1040" y="450" width="120" height="60" as="geometry" />
        </mxCell>
        <mxCell id="tCX9zsfhDaWCQf5bKKX1-2" value="操作" style="shape=hexagon;perimeter=hexagonPerimeter2;whiteSpace=wrap;html=1;fixedSize=1;fillColor=#f5f5f5;strokeColor=#d3d3d3;fontColor=#333333;" parent="1" vertex="1">
          <mxGeometry x="1100" y="450" width="120" height="60" as="geometry" />
        </mxCell>
        <mxCell id="tCX9zsfhDaWCQf5bKKX1-3" value="线性结构" style="rounded=0;whiteSpace=wrap;html=1;fillColor=#FFFFCC;strokeColor=none;" parent="1" vertex="1">
          <mxGeometry x="-1790" y="1220" width="120" height="60" as="geometry" />
        </mxCell>
        <mxCell id="tCX9zsfhDaWCQf5bKKX1-5" value="线性表" style="rounded=0;whiteSpace=wrap;html=1;fillColor=#f5f5f5;strokeColor=#d3d3d3;" parent="1" vertex="1">
          <mxGeometry x="-1980" y="1400" width="120" height="60" as="geometry" />
        </mxCell>
        <mxCell id="tCX9zsfhDaWCQf5bKKX1-6" value="extend线性结构" style="rounded=0;whiteSpace=wrap;html=1;fillColor=#f5f5f5;strokeColor=#d3d3d3;" parent="1" vertex="1">
          <mxGeometry x="-1590" y="1400" width="120" height="60" as="geometry" />
        </mxCell>
        <mxCell id="tCX9zsfhDaWCQf5bKKX1-7" value="栈 | 队列" style="shape=ellipse;perimeter=ellipsePerimeter;whiteSpace=wrap;html=1;rounded=1;fillColor=#e1effb;strokeColor=#3670a7;" parent="1" vertex="1">
          <mxGeometry x="-1980" y="1540" width="120" height="80" as="geometry" />
        </mxCell>
        <mxCell id="tCX9zsfhDaWCQf5bKKX1-8" value="树" style="shape=parallelogram;perimeter=parallelogramPerimeter;whiteSpace=wrap;html=1;fixedSize=1;fillColor=#E6FFCC;strokeColor=none;opacity=60;" parent="1" vertex="1">
          <mxGeometry x="-1140" y="1915" width="120" height="60" as="geometry" />
        </mxCell>
        <mxCell id="tCX9zsfhDaWCQf5bKKX1-9" value="图" style="shape=parallelogram;perimeter=parallelogramPerimeter;whiteSpace=wrap;html=1;fixedSize=1;fillColor=#CCFFFF;strokeColor=none;opacity=50;" parent="1" vertex="1">
          <mxGeometry x="-480" y="1010" width="120" height="60" as="geometry" />
        </mxCell>
        <mxCell id="Gu-An6xsGjLYmGweyjtp-40" style="edgeStyle=orthogonalEdgeStyle;rounded=0;orthogonalLoop=1;jettySize=auto;html=1;exitX=0.13;exitY=0.77;exitDx=0;exitDy=0;exitPerimeter=0;entryX=1;entryY=0.5;entryDx=0;entryDy=0;" edge="1" parent="1" source="tCX9zsfhDaWCQf5bKKX1-10" target="Gu-An6xsGjLYmGweyjtp-33">
          <mxGeometry relative="1" as="geometry" />
        </mxCell>
        <mxCell id="Gu-An6xsGjLYmGweyjtp-42" style="edgeStyle=orthogonalEdgeStyle;rounded=0;orthogonalLoop=1;jettySize=auto;html=1;exitX=0.4;exitY=0.1;exitDx=0;exitDy=0;exitPerimeter=0;entryX=0.5;entryY=1;entryDx=0;entryDy=0;" edge="1" parent="1" source="tCX9zsfhDaWCQf5bKKX1-10" target="Gu-An6xsGjLYmGweyjtp-31">
          <mxGeometry relative="1" as="geometry" />
        </mxCell>
        <mxCell id="tCX9zsfhDaWCQf5bKKX1-10" value="查找" style="shape=cloud;whiteSpace=wrap;html=1;fillColor=#d5e8d4;strokeColor=#82b366;" parent="1" vertex="1">
          <mxGeometry x="840" y="1450" width="120" height="80" as="geometry" />
        </mxCell>
        <mxCell id="Gu-An6xsGjLYmGweyjtp-28" style="edgeStyle=orthogonalEdgeStyle;rounded=0;orthogonalLoop=1;jettySize=auto;html=1;exitX=0.13;exitY=0.77;exitDx=0;exitDy=0;exitPerimeter=0;entryX=1;entryY=0.25;entryDx=0;entryDy=0;" edge="1" parent="1" source="tCX9zsfhDaWCQf5bKKX1-11" target="Gu-An6xsGjLYmGweyjtp-4">
          <mxGeometry relative="1" as="geometry" />
        </mxCell>
        <mxCell id="Gu-An6xsGjLYmGweyjtp-29" style="edgeStyle=orthogonalEdgeStyle;rounded=0;orthogonalLoop=1;jettySize=auto;html=1;exitX=0.25;exitY=0.25;exitDx=0;exitDy=0;exitPerimeter=0;entryX=0.5;entryY=1;entryDx=0;entryDy=0;" edge="1" parent="1" source="tCX9zsfhDaWCQf5bKKX1-11" target="Gu-An6xsGjLYmGweyjtp-3">
          <mxGeometry relative="1" as="geometry" />
        </mxCell>
        <mxCell id="tCX9zsfhDaWCQf5bKKX1-11" value="排序" style="shape=cloud;whiteSpace=wrap;html=1;fillColor=#e1effb;strokeColor=#3670a7;" parent="1" vertex="1">
          <mxGeometry x="1320" y="1930" width="120" height="80" as="geometry" />
        </mxCell>
        <mxCell id="tCX9zsfhDaWCQf5bKKX1-12" value="" style="edgeStyle=orthogonalEdgeStyle;rounded=0;orthogonalLoop=1;jettySize=auto;html=1;endArrow=classic;endFill=1;strokeColor=#B3B3B3;curved=1;exitX=0.5;exitY=1;exitDx=0;exitDy=0;" parent="1" source="tCX9zsfhDaWCQf5bKKX1-3" target="tCX9zsfhDaWCQf5bKKX1-5" edge="1">
          <mxGeometry relative="1" as="geometry" />
        </mxCell>
        <mxCell id="tCX9zsfhDaWCQf5bKKX1-13" value="" style="edgeStyle=orthogonalEdgeStyle;rounded=0;orthogonalLoop=1;jettySize=auto;html=1;endArrow=classic;endFill=1;strokeColor=#B3B3B3;curved=1;exitX=0.5;exitY=1;exitDx=0;exitDy=0;" parent="1" source="tCX9zsfhDaWCQf5bKKX1-3" target="tCX9zsfhDaWCQf5bKKX1-6" edge="1">
          <mxGeometry relative="1" as="geometry" />
        </mxCell>
        <mxCell id="tCX9zsfhDaWCQf5bKKX1-14" value="" style="endArrow=classic;html=1;rounded=0;strokeColor=#B3B3B3;" parent="1" source="tCX9zsfhDaWCQf5bKKX1-5" target="tCX9zsfhDaWCQf5bKKX1-6" edge="1">
          <mxGeometry width="50" height="50" relative="1" as="geometry">
            <mxPoint x="-1740" y="1430" as="sourcePoint" />
            <mxPoint x="-1680" y="1430" as="targetPoint" />
          </mxGeometry>
        </mxCell>
        <mxCell id="Gu-An6xsGjLYmGweyjtp-3" value="concept" style="rounded=0;whiteSpace=wrap;html=1;fillColor=none;strokeColor=none;fontSize=14;fontColor=#666666;" vertex="1" parent="1">
          <mxGeometry x="1215" y="1845" width="70" height="30" as="geometry" />
        </mxCell>
        <mxCell id="Gu-An6xsGjLYmGweyjtp-4" value="&lt;font color=&quot;#99ff99&quot;&gt;外&lt;/font&gt;部sort" style="rounded=0;whiteSpace=wrap;html=1;fillColor=none;strokeColor=none;fontSize=14;fontColor=#666666;" vertex="1" parent="1">
          <mxGeometry x="1190" y="2100" width="70" height="30" as="geometry" />
        </mxCell>
        <mxCell id="Gu-An6xsGjLYmGweyjtp-5" value="&lt;font style=&quot;color: rgb(255, 204, 0);&quot;&gt;内&lt;/font&gt;部sort" style="rounded=0;whiteSpace=wrap;html=1;fillColor=none;strokeColor=none;fontSize=14;fontColor=#666666;" vertex="1" parent="1">
          <mxGeometry x="1500" y="1910" width="70" height="30" as="geometry" />
        </mxCell>
        <mxCell id="Gu-An6xsGjLYmGweyjtp-6" value="compare" style="rounded=0;whiteSpace=wrap;html=1;fillColor=none;strokeColor=none;fontSize=14;fontColor=#666666;" vertex="1" parent="1">
          <mxGeometry x="1590" y="1980" width="70" height="30" as="geometry" />
        </mxCell>
        <mxCell id="Gu-An6xsGjLYmGweyjtp-7" value="base" style="rounded=0;whiteSpace=wrap;html=1;fillColor=none;strokeColor=none;fontSize=14;fontColor=#999999;" vertex="1" parent="1">
          <mxGeometry x="1590" y="1790" width="70" height="30" as="geometry" />
        </mxCell>
        <mxCell id="Gu-An6xsGjLYmGweyjtp-9" value="base" style="rounded=0;whiteSpace=wrap;html=1;fillColor=none;strokeColor=none;fontSize=14;fontColor=#999999;" vertex="1" parent="1">
          <mxGeometry x="1120" y="2070" width="70" height="30" as="geometry" />
        </mxCell>
        <mxCell id="Gu-An6xsGjLYmGweyjtp-10" value="本质" style="rounded=0;whiteSpace=wrap;html=1;fillColor=none;strokeColor=none;fontSize=14;fontColor=#666666;" vertex="1" parent="1">
          <mxGeometry x="1215" y="1700" width="70" height="30" as="geometry" />
        </mxCell>
        <mxCell id="Gu-An6xsGjLYmGweyjtp-11" value="in out" style="rounded=0;whiteSpace=wrap;html=1;fillColor=none;strokeColor=none;fontSize=14;fontColor=#666666;" vertex="1" parent="1">
          <mxGeometry x="1215" y="1740" width="70" height="30" as="geometry" />
        </mxCell>
        <mxCell id="Gu-An6xsGjLYmGweyjtp-12" value="特性" style="rounded=0;whiteSpace=wrap;html=1;fillColor=none;strokeColor=none;fontSize=14;fontColor=#666666;" vertex="1" parent="1">
          <mxGeometry x="1215" y="1780" width="70" height="30" as="geometry" />
        </mxCell>
        <mxCell id="Gu-An6xsGjLYmGweyjtp-13" value="插入" style="text;whiteSpace=wrap;html=1;" vertex="1" parent="1">
          <mxGeometry x="1760" y="1610" width="50" height="30" as="geometry" />
        </mxCell>
        <mxCell id="Gu-An6xsGjLYmGweyjtp-14" value="交换" style="text;whiteSpace=wrap;html=1;" vertex="1" parent="1">
          <mxGeometry x="1760" y="1660" width="50" height="30" as="geometry" />
        </mxCell>
        <mxCell id="Gu-An6xsGjLYmGweyjtp-15" value="选择" style="text;whiteSpace=wrap;html=1;" vertex="1" parent="1">
          <mxGeometry x="1760" y="1730" width="50" height="30" as="geometry" />
        </mxCell>
        <mxCell id="Gu-An6xsGjLYmGweyjtp-16" value="归并sort、基数sort和计数sort" style="text;whiteSpace=wrap;html=1;" vertex="1" parent="1">
          <mxGeometry x="1730" y="1830" width="180" height="30" as="geometry" />
        </mxCell>
        <mxCell id="Gu-An6xsGjLYmGweyjtp-18" value="因素" style="text;whiteSpace=wrap;html=1;" vertex="1" parent="1">
          <mxGeometry x="1710" y="2040" width="50" height="30" as="geometry" />
        </mxCell>
        <mxCell id="Gu-An6xsGjLYmGweyjtp-19" value="应用 &amp;amp; 小结" style="text;whiteSpace=wrap;html=1;" vertex="1" parent="1">
          <mxGeometry x="1710" y="2130" width="90" height="30" as="geometry" />
        </mxCell>
        <mxCell id="Gu-An6xsGjLYmGweyjtp-20" value="concept &amp;amp; methods" style="rounded=0;whiteSpace=wrap;html=1;fillColor=none;strokeColor=none;fontSize=14;fontColor=#999999;" vertex="1" parent="1">
          <mxGeometry x="990" y="1890" width="70" height="30" as="geometry" />
        </mxCell>
        <mxCell id="Gu-An6xsGjLYmGweyjtp-21" value="多路平衡归并&amp;amp;败者树" style="rounded=0;whiteSpace=wrap;html=1;fillColor=none;strokeColor=none;fontSize=14;fontColor=#999999;" vertex="1" parent="1">
          <mxGeometry x="990" y="2000" width="70" height="30" as="geometry" />
        </mxCell>
        <mxCell id="Gu-An6xsGjLYmGweyjtp-22" value="置换选择排序" style="rounded=0;whiteSpace=wrap;html=1;fillColor=none;strokeColor=none;fontSize=14;fontColor=#999999;" vertex="1" parent="1">
          <mxGeometry x="990" y="2080" width="70" height="30" as="geometry" />
        </mxCell>
        <mxCell id="Gu-An6xsGjLYmGweyjtp-23" value="最佳归并树" style="rounded=0;whiteSpace=wrap;html=1;fillColor=none;strokeColor=none;fontSize=14;fontColor=#999999;" vertex="1" parent="1">
          <mxGeometry x="990" y="2160" width="70" height="30" as="geometry" />
        </mxCell>
        <mxCell id="Gu-An6xsGjLYmGweyjtp-24" value="sum&amp;nbsp;" style="rounded=0;whiteSpace=wrap;html=1;fillColor=none;strokeColor=none;fontSize=14;fontColor=#999999;" vertex="1" parent="1">
          <mxGeometry x="990" y="2240" width="70" height="30" as="geometry" />
        </mxCell>
        <mxCell id="Gu-An6xsGjLYmGweyjtp-27" value="" style="shape=curlyBracket;whiteSpace=wrap;html=1;rounded=1;flipH=1;labelPosition=right;verticalLabelPosition=middle;align=left;verticalAlign=middle;" vertex="1" parent="1">
          <mxGeometry x="1080" y="2000" width="20" height="170" as="geometry" />
        </mxCell>
        <mxCell id="Gu-An6xsGjLYmGweyjtp-30" style="edgeStyle=orthogonalEdgeStyle;rounded=0;orthogonalLoop=1;jettySize=auto;html=1;exitX=0.875;exitY=0.5;exitDx=0;exitDy=0;exitPerimeter=0;entryX=-0.101;entryY=0.633;entryDx=0;entryDy=0;entryPerimeter=0;" edge="1" parent="1" source="tCX9zsfhDaWCQf5bKKX1-11" target="Gu-An6xsGjLYmGweyjtp-5">
          <mxGeometry relative="1" as="geometry" />
        </mxCell>
        <mxCell id="Gu-An6xsGjLYmGweyjtp-31" value="&lt;font style=&quot;color: rgb(102, 255, 255);&quot;&gt;顺序&lt;/font&gt;search&amp;amp;&lt;font style=&quot;color: rgb(255, 204, 0);&quot;&gt;折&lt;/font&gt;半～&amp;amp;&lt;font style=&quot;color: rgb(153, 255, 153);&quot;&gt;分块&lt;/font&gt;~" style="text;whiteSpace=wrap;html=1;fontColor=#999999;" vertex="1" parent="1">
          <mxGeometry x="670" y="1360" width="170" height="30" as="geometry" />
        </mxCell>
        <mxCell id="Gu-An6xsGjLYmGweyjtp-32" value="&lt;font style=&quot;color: rgb(0, 255, 0);&quot;&gt;树&lt;/font&gt;形search" style="text;whiteSpace=wrap;html=1;fontColor=#999999;" vertex="1" parent="1">
          <mxGeometry x="1030" y="1420" width="80" height="30" as="geometry" />
        </mxCell>
        <mxCell id="Gu-An6xsGjLYmGweyjtp-33" value="&lt;font style=&quot;color: rgb(102, 178, 255);&quot;&gt;散列&lt;/font&gt;(Hash)表" style="text;whiteSpace=wrap;html=1;fontColor=#999999;" vertex="1" parent="1">
          <mxGeometry x="670" y="1550" width="100" height="30" as="geometry" />
        </mxCell>
        <mxCell id="Gu-An6xsGjLYmGweyjtp-34" value="&lt;font style=&quot;color: rgb(153, 153, 153);&quot;&gt;concept&lt;/font&gt;" style="text;whiteSpace=wrap;html=1;fontColor=#999999;" vertex="1" parent="1">
          <mxGeometry x="560" y="1510" width="100" height="30" as="geometry" />
        </mxCell>
        <mxCell id="Gu-An6xsGjLYmGweyjtp-35" value="&lt;font style=&quot;color: rgb(153, 153, 153);&quot;&gt;处理&lt;/font&gt;&lt;font style=&quot;color: rgb(255, 204, 0);&quot;&gt;冲突&lt;/font&gt;&lt;font style=&quot;color: rgb(153, 153, 153);&quot;&gt;的方法&lt;/font&gt;" style="text;whiteSpace=wrap;html=1;fontColor=#999999;" vertex="1" parent="1">
          <mxGeometry x="530" y="1585" width="100" height="30" as="geometry" />
        </mxCell>
        <mxCell id="Gu-An6xsGjLYmGweyjtp-36" value="二叉排序树 (BST)" style="text;whiteSpace=wrap;html=1;" vertex="1" parent="1">
          <mxGeometry x="1130" y="1300" width="130" height="40" as="geometry" />
        </mxCell>
        <mxCell id="Gu-An6xsGjLYmGweyjtp-37" value="平衡二叉树" style="text;whiteSpace=wrap;html=1;" vertex="1" parent="1">
          <mxGeometry x="1130" y="1370" width="90" height="40" as="geometry" />
        </mxCell>
        <mxCell id="Gu-An6xsGjLYmGweyjtp-38" value="红黑树" style="text;whiteSpace=wrap;html=1;" vertex="1" parent="1">
          <mxGeometry x="1130" y="1440" width="70" height="40" as="geometry" />
        </mxCell>
        <mxCell id="Gu-An6xsGjLYmGweyjtp-39" value="B树和B+树" style="text;whiteSpace=wrap;html=1;" vertex="1" parent="1">
          <mxGeometry x="1130" y="1500" width="90" height="40" as="geometry" />
        </mxCell>
        <mxCell id="Gu-An6xsGjLYmGweyjtp-41" style="edgeStyle=orthogonalEdgeStyle;rounded=0;orthogonalLoop=1;jettySize=auto;html=1;exitX=0.88;exitY=0.25;exitDx=0;exitDy=0;exitPerimeter=0;entryX=-0.072;entryY=0.459;entryDx=0;entryDy=0;entryPerimeter=0;" edge="1" parent="1" source="tCX9zsfhDaWCQf5bKKX1-10" target="Gu-An6xsGjLYmGweyjtp-32">
          <mxGeometry relative="1" as="geometry" />
        </mxCell>
        <mxCell id="Gu-An6xsGjLYmGweyjtp-44" value="concept" style="text;whiteSpace=wrap;html=1;fontColor=#999999;" vertex="1" parent="1">
          <mxGeometry x="-570" y="920" width="70" height="30" as="geometry" />
        </mxCell>
        <mxCell id="Gu-An6xsGjLYmGweyjtp-45" value="&lt;font style=&quot;color: rgb(179, 255, 102);&quot;&gt;遍历&lt;/font&gt;" style="text;whiteSpace=wrap;html=1;fontColor=#999999;" vertex="1" parent="1">
          <mxGeometry x="-300" y="960" width="50" height="30" as="geometry" />
        </mxCell>
        <mxCell id="Gu-An6xsGjLYmGweyjtp-46" value="&lt;font style=&quot;color: rgb(255, 204, 0);&quot;&gt;应用&lt;/font&gt;" style="text;whiteSpace=wrap;html=1;fontColor=#999999;" vertex="1" parent="1">
          <mxGeometry x="-630" y="1120" width="50" height="30" as="geometry" />
        </mxCell>
        <mxCell id="Gu-An6xsGjLYmGweyjtp-48" value="定义" style="text;whiteSpace=wrap;html=1;fontColor=#999999;" vertex="1" parent="1">
          <mxGeometry x="-670" y="880" width="60" height="40" as="geometry" />
        </mxCell>
        <mxCell id="Gu-An6xsGjLYmGweyjtp-49" value="基本类型" style="text;whiteSpace=wrap;html=1;fontColor=#999999;" vertex="1" parent="1">
          <mxGeometry x="-630" y="880" width="110" height="40" as="geometry" />
        </mxCell>
        <mxCell id="Gu-An6xsGjLYmGweyjtp-51" value="图的存储结构" style="text;whiteSpace=wrap;html=1;fontColor=#999999;" vertex="1" parent="1">
          <mxGeometry x="-500" y="830" width="110" height="40" as="geometry" />
        </mxCell>
        <mxCell id="Gu-An6xsGjLYmGweyjtp-52" value="图的基本操作" style="text;whiteSpace=wrap;html=1;fontColor=#999999;" vertex="1" parent="1">
          <mxGeometry x="-500" y="870" width="110" height="40" as="geometry" />
        </mxCell>
        <mxCell id="Gu-An6xsGjLYmGweyjtp-53" value="广度优先搜索" style="text;whiteSpace=wrap;html=1;fontColor=#999999;" vertex="1" parent="1">
          <mxGeometry x="-240" y="930" width="110" height="40" as="geometry" />
        </mxCell>
        <mxCell id="Gu-An6xsGjLYmGweyjtp-54" value="深度优先搜索" style="text;whiteSpace=wrap;html=1;fontColor=#999999;" vertex="1" parent="1">
          <mxGeometry x="-240" y="1000" width="110" height="40" as="geometry" />
        </mxCell>
        <mxCell id="Gu-An6xsGjLYmGweyjtp-55" value="最小生成树" style="text;whiteSpace=wrap;html=1;fontColor=#999999;" vertex="1" parent="1">
          <mxGeometry x="-760" y="1190" width="90" height="40" as="geometry" />
        </mxCell>
        <mxCell id="Gu-An6xsGjLYmGweyjtp-56" value="最短路径" style="text;whiteSpace=wrap;html=1;fontColor=#999999;" vertex="1" parent="1">
          <mxGeometry x="-590" y="1190" width="80" height="40" as="geometry" />
        </mxCell>
        <mxCell id="Gu-An6xsGjLYmGweyjtp-57" value="关键路径" style="text;whiteSpace=wrap;html=1;fontColor=#999999;" vertex="1" parent="1">
          <mxGeometry x="-590" y="1280" width="80" height="40" as="geometry" />
        </mxCell>
        <mxCell id="Gu-An6xsGjLYmGweyjtp-58" value="拓扑排序" style="text;whiteSpace=wrap;html=1;fontColor=#999999;" vertex="1" parent="1">
          <mxGeometry x="-590" y="1230" width="80" height="40" as="geometry" />
        </mxCell>
        <mxCell id="Gu-An6xsGjLYmGweyjtp-80" style="edgeStyle=orthogonalEdgeStyle;rounded=0;orthogonalLoop=1;jettySize=auto;html=1;exitX=0;exitY=0.5;exitDx=0;exitDy=0;entryX=1;entryY=0.5;entryDx=0;entryDy=0;" edge="1" parent="1" source="Gu-An6xsGjLYmGweyjtp-59" target="Gu-An6xsGjLYmGweyjtp-66">
          <mxGeometry relative="1" as="geometry" />
        </mxCell>
        <mxCell id="Gu-An6xsGjLYmGweyjtp-81" style="edgeStyle=orthogonalEdgeStyle;rounded=0;orthogonalLoop=1;jettySize=auto;html=1;exitX=0.5;exitY=0;exitDx=0;exitDy=0;entryX=0.5;entryY=1;entryDx=0;entryDy=0;" edge="1" parent="1" source="Gu-An6xsGjLYmGweyjtp-59" target="Gu-An6xsGjLYmGweyjtp-67">
          <mxGeometry relative="1" as="geometry" />
        </mxCell>
        <mxCell id="Gu-An6xsGjLYmGweyjtp-82" style="edgeStyle=orthogonalEdgeStyle;rounded=0;orthogonalLoop=1;jettySize=auto;html=1;exitX=0.5;exitY=0;exitDx=0;exitDy=0;entryX=0.5;entryY=1;entryDx=0;entryDy=0;" edge="1" parent="1" source="Gu-An6xsGjLYmGweyjtp-59" target="Gu-An6xsGjLYmGweyjtp-68">
          <mxGeometry relative="1" as="geometry" />
        </mxCell>
        <mxCell id="Gu-An6xsGjLYmGweyjtp-59" value="&lt;font style=&quot;color: rgb(255, 153, 51);&quot;&gt;二叉&lt;/font&gt;&lt;font style=&quot;color: rgb(51, 255, 51);&quot;&gt;树&lt;/font&gt;" style="text;whiteSpace=wrap;html=1;" vertex="1" parent="1">
          <mxGeometry x="-1210" y="1850" width="60" height="30" as="geometry" />
        </mxCell>
        <mxCell id="Gu-An6xsGjLYmGweyjtp-60" value="树&amp;森林" style="text;whiteSpace=wrap;html=1;" vertex="1" parent="1">
          <mxGeometry x="-940" y="1985" width="70" height="30" as="geometry" />
        </mxCell>
        <mxCell id="Gu-An6xsGjLYmGweyjtp-61" value="树_concept" style="text;whiteSpace=wrap;html=1;" vertex="1" parent="1">
          <mxGeometry x="-1350" y="2030" width="70" height="30" as="geometry" />
        </mxCell>
        <mxCell id="Gu-An6xsGjLYmGweyjtp-62" value="definition" style="text;whiteSpace=wrap;html=1;" vertex="1" parent="1">
          <mxGeometry x="-1480" y="1992.5" width="80" height="40" as="geometry" />
        </mxCell>
        <mxCell id="Gu-An6xsGjLYmGweyjtp-63" value="术语" style="text;whiteSpace=wrap;html=1;" vertex="1" parent="1">
          <mxGeometry x="-1480" y="2032.5" width="80" height="40" as="geometry" />
        </mxCell>
        <mxCell id="Gu-An6xsGjLYmGweyjtp-64" value="性质" style="text;whiteSpace=wrap;html=1;" vertex="1" parent="1">
          <mxGeometry x="-1480" y="2077.5" width="80" height="40" as="geometry" />
        </mxCell>
        <mxCell id="Gu-An6xsGjLYmGweyjtp-66" value="concept" style="text;whiteSpace=wrap;html=1;" vertex="1" parent="1">
          <mxGeometry x="-1370" y="1845" width="80" height="40" as="geometry" />
        </mxCell>
        <mxCell id="Gu-An6xsGjLYmGweyjtp-85" style="edgeStyle=orthogonalEdgeStyle;rounded=0;orthogonalLoop=1;jettySize=auto;html=1;exitX=0.25;exitY=0;exitDx=0;exitDy=0;" edge="1" parent="1" source="Gu-An6xsGjLYmGweyjtp-67" target="Gu-An6xsGjLYmGweyjtp-74">
          <mxGeometry relative="1" as="geometry" />
        </mxCell>
        <mxCell id="Gu-An6xsGjLYmGweyjtp-86" style="edgeStyle=orthogonalEdgeStyle;rounded=0;orthogonalLoop=1;jettySize=auto;html=1;exitX=0.25;exitY=0;exitDx=0;exitDy=0;entryX=0;entryY=0.5;entryDx=0;entryDy=0;" edge="1" parent="1" source="Gu-An6xsGjLYmGweyjtp-67" target="Gu-An6xsGjLYmGweyjtp-71">
          <mxGeometry relative="1" as="geometry">
            <Array as="points">
              <mxPoint x="-1220" y="1720" />
              <mxPoint x="-1280" y="1720" />
              <mxPoint x="-1280" y="1535" />
            </Array>
          </mxGeometry>
        </mxCell>
        <mxCell id="Gu-An6xsGjLYmGweyjtp-87" style="edgeStyle=orthogonalEdgeStyle;rounded=0;orthogonalLoop=1;jettySize=auto;html=1;exitX=0.25;exitY=0;exitDx=0;exitDy=0;entryX=-0.028;entryY=0.505;entryDx=0;entryDy=0;entryPerimeter=0;" edge="1" parent="1" source="Gu-An6xsGjLYmGweyjtp-67" target="Gu-An6xsGjLYmGweyjtp-73">
          <mxGeometry relative="1" as="geometry">
            <Array as="points">
              <mxPoint x="-1220" y="1720" />
              <mxPoint x="-1280" y="1720" />
              <mxPoint x="-1280" y="1625" />
            </Array>
          </mxGeometry>
        </mxCell>
        <mxCell id="Gu-An6xsGjLYmGweyjtp-88" style="edgeStyle=orthogonalEdgeStyle;rounded=0;orthogonalLoop=1;jettySize=auto;html=1;exitX=0.25;exitY=0;exitDx=0;exitDy=0;entryX=0.01;entryY=0.347;entryDx=0;entryDy=0;entryPerimeter=0;" edge="1" parent="1" source="Gu-An6xsGjLYmGweyjtp-67" target="Gu-An6xsGjLYmGweyjtp-72">
          <mxGeometry relative="1" as="geometry">
            <Array as="points">
              <mxPoint x="-1220" y="1720" />
              <mxPoint x="-1280" y="1720" />
              <mxPoint x="-1280" y="1575" />
              <mxPoint x="-1259" y="1575" />
            </Array>
          </mxGeometry>
        </mxCell>
        <mxCell id="Gu-An6xsGjLYmGweyjtp-67" value="&lt;font style=&quot;color: rgb(102, 255, 255);&quot;&gt;遍历&amp;nbsp;&lt;/font&gt;" style="text;whiteSpace=wrap;html=1;" vertex="1" parent="1">
          <mxGeometry x="-1230" y="1760" width="40" height="30" as="geometry" />
        </mxCell>
        <mxCell id="Gu-An6xsGjLYmGweyjtp-90" style="edgeStyle=orthogonalEdgeStyle;rounded=0;orthogonalLoop=1;jettySize=auto;html=1;exitX=0.5;exitY=0;exitDx=0;exitDy=0;entryX=0;entryY=0.25;entryDx=0;entryDy=0;" edge="1" parent="1" source="Gu-An6xsGjLYmGweyjtp-68" target="Gu-An6xsGjLYmGweyjtp-76">
          <mxGeometry relative="1" as="geometry" />
        </mxCell>
        <mxCell id="Gu-An6xsGjLYmGweyjtp-68" value="&lt;font style=&quot;color: rgb(255, 204, 0);&quot;&gt;线索&lt;/font&gt;二叉树" style="text;whiteSpace=wrap;html=1;" vertex="1" parent="1">
          <mxGeometry x="-1160" y="1760" width="80" height="30" as="geometry" />
        </mxCell>
        <mxCell id="Gu-An6xsGjLYmGweyjtp-69" value="定义 &amp;amp; 特性" style="text;whiteSpace=wrap;html=1;" vertex="1" parent="1">
          <mxGeometry x="-1490" y="1805" width="90" height="40" as="geometry" />
        </mxCell>
        <mxCell id="Gu-An6xsGjLYmGweyjtp-70" value="存储结构" style="text;whiteSpace=wrap;html=1;" vertex="1" parent="1">
          <mxGeometry x="-1490" y="1860" width="90" height="40" as="geometry" />
        </mxCell>
        <mxCell id="Gu-An6xsGjLYmGweyjtp-71" value="遍历ways&amp;nbsp;" style="text;whiteSpace=wrap;html=1;" vertex="1" parent="1">
          <mxGeometry x="-1260" y="1520" width="80" height="30" as="geometry" />
        </mxCell>
        <mxCell id="Gu-An6xsGjLYmGweyjtp-72" value="递归 ←→非递归" style="text;whiteSpace=wrap;html=1;" vertex="1" parent="1">
          <mxGeometry x="-1260" y="1565" width="90" height="30" as="geometry" />
        </mxCell>
        <mxCell id="Gu-An6xsGjLYmGweyjtp-73" value="层次&lt;span style=&quot;background-color: transparent; color: light-dark(rgb(0, 0, 0), rgb(255, 255, 255));&quot;&gt;遍历&amp;nbsp;&lt;/span&gt;" style="text;whiteSpace=wrap;html=1;" vertex="1" parent="1">
          <mxGeometry x="-1260" y="1610" width="60" height="30" as="geometry" />
        </mxCell>
        <mxCell id="Gu-An6xsGjLYmGweyjtp-74" value="由遍历序列构造 二叉树" style="text;whiteSpace=wrap;html=1;" vertex="1" parent="1">
          <mxGeometry x="-1470" y="1650" width="150" height="30" as="geometry" />
        </mxCell>
        <mxCell id="Gu-An6xsGjLYmGweyjtp-76" value="concept" style="text;whiteSpace=wrap;html=1;" vertex="1" parent="1">
          <mxGeometry x="-1060" y="1610" width="40" height="30" as="geometry" />
        </mxCell>
        <mxCell id="Gu-An6xsGjLYmGweyjtp-77" value="中序线索二叉树" style="text;whiteSpace=wrap;html=1;" vertex="1" parent="1">
          <mxGeometry x="-1060" y="1670" width="110" height="30" as="geometry" />
        </mxCell>
        <mxCell id="Gu-An6xsGjLYmGweyjtp-78" value="&lt;font style=&quot;color: rgb(102, 255, 255);&quot;&gt;遍历&lt;/font&gt;" style="text;whiteSpace=wrap;html=1;" vertex="1" parent="1">
          <mxGeometry x="-950" y="1710" width="40" height="30" as="geometry" />
        </mxCell>
        <mxCell id="Gu-An6xsGjLYmGweyjtp-79" value="&lt;font style=&quot;color: rgb(179, 255, 102);&quot;&gt;构造&lt;/font&gt;" style="text;whiteSpace=wrap;html=1;" vertex="1" parent="1">
          <mxGeometry x="-950" y="1660" width="40" height="30" as="geometry" />
        </mxCell>
        <mxCell id="Gu-An6xsGjLYmGweyjtp-83" value="先序&amp;amp;后序线索二叉树" style="text;whiteSpace=wrap;html=1;" vertex="1" parent="1">
          <mxGeometry x="-1060" y="1770" width="130" height="30" as="geometry" />
        </mxCell>
        <mxCell id="Gu-An6xsGjLYmGweyjtp-89" value="" style="shape=curlyBracket;whiteSpace=wrap;html=1;rounded=1;labelPosition=left;verticalLabelPosition=middle;align=right;verticalAlign=middle;" vertex="1" parent="1">
          <mxGeometry x="-1080" y="1685" width="20" height="105" as="geometry" />
        </mxCell>
        <mxCell id="Gu-An6xsGjLYmGweyjtp-92" style="edgeStyle=orthogonalEdgeStyle;rounded=0;orthogonalLoop=1;jettySize=auto;html=1;exitX=0.5;exitY=0;exitDx=0;exitDy=0;entryX=-0.005;entryY=0.45;entryDx=0;entryDy=0;entryPerimeter=0;" edge="1" parent="1" source="Gu-An6xsGjLYmGweyjtp-68" target="Gu-An6xsGjLYmGweyjtp-89">
          <mxGeometry relative="1" as="geometry" />
        </mxCell>
        <mxCell id="Gu-An6xsGjLYmGweyjtp-93" value="树&#39; 存储结构" style="text;whiteSpace=wrap;html=1;" vertex="1" parent="1">
          <mxGeometry x="-840" y="1910" width="70" height="30" as="geometry" />
        </mxCell>
        <mxCell id="Gu-An6xsGjLYmGweyjtp-94" value="树← → 森林← → 二叉树" style="text;whiteSpace=wrap;html=1;" vertex="1" parent="1">
          <mxGeometry x="-840" y="1955" width="150" height="30" as="geometry" />
        </mxCell>
        <mxCell id="Gu-An6xsGjLYmGweyjtp-95" value="apply" style="text;whiteSpace=wrap;html=1;" vertex="1" parent="1">
          <mxGeometry x="-840" y="2030" width="70" height="30" as="geometry" />
        </mxCell>
        <mxCell id="Gu-An6xsGjLYmGweyjtp-96" value="哈夫曼树&amp;amp;哈夫曼编码" style="text;whiteSpace=wrap;html=1;" vertex="1" parent="1">
          <mxGeometry x="-770" y="2010" width="130" height="30" as="geometry" />
        </mxCell>
        <mxCell id="Gu-An6xsGjLYmGweyjtp-97" value="并查集" style="text;whiteSpace=wrap;html=1;" vertex="1" parent="1">
          <mxGeometry x="-770" y="2060" width="70" height="30" as="geometry" />
        </mxCell>
      </root>
    </mxGraphModel>
  </diagram>
</mxfile>
